<svg width="139" height="319" viewBox="0 0 139 319" fill="none" xmlns="http://www.w3.org/2000/svg">
<path d="M5 116H65V176L32.5 143.5L5 116Z" fill="#0060A3"/>
<path d="M125 116H65V176L97.5 143.5L125 116Z" fill="#F2F2F2"/>
<rect x="5" y="26" width="60" height="90" fill="#0060A3"/>
<rect x="65" y="26" width="60" height="90" fill="#F2F2F2"/>
<rect x="2" width="126" height="26" fill="#E0B138"/>
<rect x="5" y="3" width="120" height="20" fill="#EACB7B"/>
<path d="M20.469 9.19V17H18.665V13.799H15.552V17H13.748V9.19H15.552V12.215H18.665V9.19H20.469ZM27.9542 17.066C27.3748 17.066 26.8468 16.9523 26.3702 16.725C25.8935 16.4977 25.4865 16.2007 25.1492 15.834C24.8118 15.46 24.5478 15.0347 24.3572 14.558C24.1738 14.0813 24.0822 13.59 24.0822 13.084C24.0822 12.5707 24.1775 12.0757 24.3682 11.599C24.5662 11.1223 24.8375 10.7043 25.1822 10.345C25.5342 9.97833 25.9485 9.68867 26.4252 9.476C26.9018 9.256 27.4225 9.146 27.9872 9.146C28.5665 9.146 29.0945 9.25967 29.5712 9.487C30.0478 9.71433 30.4548 10.015 30.7922 10.389C31.1295 10.763 31.3898 11.1883 31.5732 11.665C31.7565 12.1417 31.8482 12.6257 31.8482 13.117C31.8482 13.6303 31.7492 14.1253 31.5512 14.602C31.3605 15.0787 31.0928 15.5003 30.7482 15.867C30.4035 16.2263 29.9928 16.516 29.5162 16.736C29.0395 16.956 28.5188 17.066 27.9542 17.066ZM25.9192 13.106C25.9192 13.4067 25.9632 13.7 26.0512 13.986C26.1392 14.2647 26.2675 14.514 26.4362 14.734C26.6122 14.954 26.8285 15.13 27.0852 15.262C27.3418 15.394 27.6352 15.46 27.9652 15.46C28.3098 15.46 28.6105 15.3903 28.8672 15.251C29.1238 15.1117 29.3365 14.932 29.5052 14.712C29.6738 14.4847 29.7985 14.2317 29.8792 13.953C29.9672 13.667 30.0112 13.3773 30.0112 13.084C30.0112 12.7833 29.9672 12.4937 29.8792 12.215C29.7912 11.929 29.6592 11.6797 29.4832 11.467C29.3072 11.247 29.0908 11.0747 28.8342 10.95C28.5848 10.818 28.2952 10.752 27.9652 10.752C27.6205 10.752 27.3198 10.8217 27.0632 10.961C26.8138 11.093 26.6012 11.269 26.4252 11.489C26.2565 11.709 26.1282 11.962 26.0402 12.248C25.9595 12.5267 25.9192 12.8127 25.9192 13.106ZM36.215 9.19L38.052 14.734L39.867 9.19H41.77L38.811 17H37.293L34.301 9.19H36.215ZM50.1745 15.416V17H44.6855V9.19H50.0755V10.774H46.4895V12.292H49.5695V13.755H46.4895V15.416H50.1745ZM53.8378 17V9.19H56.7528C57.3982 9.19 57.9628 9.29267 58.4468 9.498C58.9308 9.70333 59.3342 9.982 59.6568 10.334C59.9868 10.686 60.2325 11.1003 60.3938 11.577C60.5625 12.0463 60.6468 12.5487 60.6468 13.084C60.6468 13.678 60.5552 14.217 60.3718 14.701C60.1885 15.1777 59.9245 15.5883 59.5798 15.933C59.2425 16.2703 58.8318 16.5343 58.3478 16.725C57.8712 16.9083 57.3395 17 56.7528 17H53.8378ZM58.8098 13.084C58.8098 12.7393 58.7622 12.4277 58.6668 12.149C58.5788 11.863 58.4468 11.6173 58.2708 11.412C58.0948 11.2067 57.8785 11.049 57.6218 10.939C57.3652 10.829 57.0755 10.774 56.7528 10.774H55.6418V15.416H56.7528C57.0828 15.416 57.3762 15.3573 57.6328 15.24C57.8895 15.1227 58.1022 14.9613 58.2708 14.756C58.4468 14.5433 58.5788 14.2977 58.6668 14.019C58.7622 13.733 58.8098 13.4213 58.8098 13.084ZM68.9652 11.478C68.9432 11.4487 68.8662 11.3937 68.7342 11.313C68.6023 11.2323 68.4373 11.148 68.2393 11.06C68.0412 10.972 67.8249 10.895 67.5902 10.829C67.3556 10.763 67.1209 10.73 66.8863 10.73C66.2409 10.73 65.9182 10.9463 65.9182 11.379C65.9182 11.511 65.9512 11.621 66.0172 11.709C66.0906 11.797 66.1933 11.8777 66.3253 11.951C66.4646 12.017 66.6369 12.0793 66.8422 12.138C67.0476 12.1967 67.2859 12.2627 67.5572 12.336C67.9312 12.4387 68.2686 12.5523 68.5693 12.677C68.8699 12.7943 69.1229 12.9447 69.3283 13.128C69.5409 13.304 69.7022 13.5203 69.8122 13.777C69.9296 14.0337 69.9883 14.3417 69.9883 14.701C69.9883 15.141 69.9039 15.515 69.7353 15.823C69.5739 16.1237 69.3576 16.3693 69.0862 16.56C68.8149 16.7433 68.5032 16.879 68.1512 16.967C67.7993 17.0477 67.4363 17.088 67.0623 17.088C66.7763 17.088 66.4829 17.066 66.1822 17.022C65.8816 16.978 65.5883 16.9157 65.3022 16.835C65.0163 16.747 64.7376 16.6443 64.4663 16.527C64.2022 16.4097 63.9566 16.274 63.7292 16.12L64.5213 14.547C64.5506 14.5837 64.6459 14.6533 64.8072 14.756C64.9686 14.8587 65.1666 14.9613 65.4013 15.064C65.6432 15.1667 65.9109 15.2583 66.2043 15.339C66.4976 15.4197 66.7946 15.46 67.0953 15.46C67.7333 15.46 68.0523 15.2657 68.0523 14.877C68.0523 14.7303 68.0046 14.6093 67.9093 14.514C67.8139 14.4187 67.6819 14.3343 67.5132 14.261C67.3446 14.1803 67.1429 14.107 66.9083 14.041C66.6809 13.975 66.4316 13.9017 66.1602 13.821C65.8009 13.711 65.4892 13.5937 65.2252 13.469C64.9613 13.337 64.7412 13.1867 64.5652 13.018C64.3966 12.8493 64.2683 12.655 64.1803 12.435C64.0996 12.215 64.0593 11.9583 64.0593 11.665C64.0593 11.2543 64.1362 10.8913 64.2902 10.576C64.4443 10.2607 64.6533 9.99667 64.9173 9.784C65.1813 9.564 65.4856 9.399 65.8303 9.289C66.1823 9.179 66.5526 9.124 66.9413 9.124C67.2126 9.124 67.4802 9.14967 67.7442 9.201C68.0082 9.25233 68.2612 9.31833 68.5032 9.399C68.7453 9.47967 68.9689 9.57133 69.1743 9.674C69.3869 9.77667 69.5812 9.87933 69.7572 9.982L68.9652 11.478ZM79.2537 10.774H76.8777V17H75.0737V10.774H72.6867V9.19H79.2537V10.774ZM83.2246 9.19L84.9076 12.776L86.6126 9.19H88.5816L85.7986 14.338V17H84.0056V14.316L81.2666 9.19H83.2246ZM91.5 17V9.19H95.02C95.3866 9.19 95.724 9.267 96.032 9.421C96.3473 9.575 96.6186 9.77667 96.846 10.026C97.0733 10.2753 97.2493 10.5577 97.374 10.873C97.506 11.1883 97.572 11.5073 97.572 11.83C97.572 12.072 97.5426 12.3067 97.484 12.534C97.4253 12.754 97.341 12.963 97.231 13.161C97.121 13.359 96.9853 13.5387 96.824 13.7C96.67 13.854 96.494 13.986 96.296 14.096L98.012 17H95.977L94.481 14.481H93.304V17H91.5ZM93.304 12.908H94.954C95.1666 12.908 95.35 12.809 95.504 12.611C95.658 12.4057 95.735 12.1453 95.735 11.83C95.735 11.5073 95.647 11.2507 95.471 11.06C95.295 10.8693 95.1043 10.774 94.899 10.774H93.304V12.908ZM106.925 15.416V17H101.436V9.19H106.826V10.774H103.24V12.292H106.32V13.755H103.24V15.416H106.925ZM116.228 10.774H113.852V17H112.048V10.774H109.661V9.19H116.228V10.774Z" fill="#E0B138"/>
<circle cx="65" cy="239" r="63" fill="#E0B138"/>
<path d="M65 239C65 265.51 65 239 65 287C38.4903 287 17 265.51 17 239C17 212.49 38.4903 191 65 191C65 239 65 212.49 65 239Z" fill="#F2F2F2"/>
<path d="M65 239C65 265.51 65 239 65 287C91.5097 287 113 265.51 113 239C113 212.49 91.5097 191 65 191C65 239 65 212.49 65 239Z" fill="#0060A3"/>
<path d="M81.5 191L139 194.5L71 252L24.5 250L81.5 191Z" fill="#EACB7B"/>
<path d="M65.5 241L101.5 243L21 319L3.5 318L65.5 241Z" fill="#EACB7B"/>
<path d="M78 191L135.5 194.5L67.5 252L21 250L78 191Z" fill="#E0B138"/>
<path d="M62 241L98 243L17.5 319L0 318L62 241Z" fill="#E0B138"/>
</svg>
