<svg width="148" height="319" viewBox="0 0 148 319" fill="none" xmlns="http://www.w3.org/2000/svg">
<rect x="11" width="126" height="26" fill="#E0B138"/>
<rect x="14" y="3" width="120" height="20" fill="#EACB7B"/>
<path d="M29.469 9.19V17H27.665V13.799H24.552V17H22.748V9.19H24.552V12.215H27.665V9.19H29.469ZM36.9542 17.066C36.3748 17.066 35.8468 16.9523 35.3702 16.725C34.8935 16.4977 34.4865 16.2007 34.1492 15.834C33.8118 15.46 33.5478 15.0347 33.3572 14.558C33.1738 14.0813 33.0822 13.59 33.0822 13.084C33.0822 12.5707 33.1775 12.0757 33.3682 11.599C33.5662 11.1223 33.8375 10.7043 34.1822 10.345C34.5342 9.97833 34.9485 9.68867 35.4252 9.476C35.9018 9.256 36.4225 9.146 36.9872 9.146C37.5665 9.146 38.0945 9.25967 38.5712 9.487C39.0478 9.71433 39.4548 10.015 39.7922 10.389C40.1295 10.763 40.3898 11.1883 40.5732 11.665C40.7565 12.1417 40.8482 12.6257 40.8482 13.117C40.8482 13.6303 40.7492 14.1253 40.5512 14.602C40.3605 15.0787 40.0928 15.5003 39.7482 15.867C39.4035 16.2263 38.9928 16.516 38.5162 16.736C38.0395 16.956 37.5188 17.066 36.9542 17.066ZM34.9192 13.106C34.9192 13.4067 34.9632 13.7 35.0512 13.986C35.1392 14.2647 35.2675 14.514 35.4362 14.734C35.6122 14.954 35.8285 15.13 36.0852 15.262C36.3418 15.394 36.6352 15.46 36.9652 15.46C37.3098 15.46 37.6105 15.3903 37.8672 15.251C38.1238 15.1117 38.3365 14.932 38.5052 14.712C38.6738 14.4847 38.7985 14.2317 38.8792 13.953C38.9672 13.667 39.0112 13.3773 39.0112 13.084C39.0112 12.7833 38.9672 12.4937 38.8792 12.215C38.7912 11.929 38.6592 11.6797 38.4832 11.467C38.3072 11.247 38.0908 11.0747 37.8342 10.95C37.5848 10.818 37.2952 10.752 36.9652 10.752C36.6205 10.752 36.3198 10.8217 36.0632 10.961C35.8138 11.093 35.6012 11.269 35.4252 11.489C35.2565 11.709 35.1282 11.962 35.0402 12.248C34.9595 12.5267 34.9192 12.8127 34.9192 13.106ZM45.215 9.19L47.052 14.734L48.867 9.19H50.77L47.811 17H46.293L43.301 9.19H45.215ZM59.1745 15.416V17H53.6855V9.19H59.0755V10.774H55.4895V12.292H58.5695V13.755H55.4895V15.416H59.1745ZM62.8378 17V9.19H65.7528C66.3982 9.19 66.9628 9.29267 67.4468 9.498C67.9308 9.70333 68.3342 9.982 68.6568 10.334C68.9868 10.686 69.2325 11.1003 69.3938 11.577C69.5625 12.0463 69.6468 12.5487 69.6468 13.084C69.6468 13.678 69.5552 14.217 69.3718 14.701C69.1885 15.1777 68.9245 15.5883 68.5798 15.933C68.2425 16.2703 67.8318 16.5343 67.3478 16.725C66.8712 16.9083 66.3395 17 65.7528 17H62.8378ZM67.8098 13.084C67.8098 12.7393 67.7622 12.4277 67.6668 12.149C67.5788 11.863 67.4468 11.6173 67.2708 11.412C67.0948 11.2067 66.8785 11.049 66.6218 10.939C66.3652 10.829 66.0755 10.774 65.7528 10.774H64.6418V15.416H65.7528C66.0828 15.416 66.3762 15.3573 66.6328 15.24C66.8895 15.1227 67.1022 14.9613 67.2708 14.756C67.4468 14.5433 67.5788 14.2977 67.6668 14.019C67.7622 13.733 67.8098 13.4213 67.8098 13.084ZM77.9653 11.478C77.9433 11.4487 77.8663 11.3937 77.7343 11.313C77.6023 11.2323 77.4373 11.148 77.2393 11.06C77.0413 10.972 76.8249 10.895 76.5903 10.829C76.3556 10.763 76.1209 10.73 75.8863 10.73C75.2409 10.73 74.9183 10.9463 74.9183 11.379C74.9183 11.511 74.9513 11.621 75.0173 11.709C75.0906 11.797 75.1933 11.8777 75.3253 11.951C75.4646 12.017 75.6369 12.0793 75.8423 12.138C76.0476 12.1967 76.2859 12.2627 76.5573 12.336C76.9313 12.4387 77.2686 12.5523 77.5693 12.677C77.8699 12.7943 78.1229 12.9447 78.3283 13.128C78.5409 13.304 78.7023 13.5203 78.8123 13.777C78.9296 14.0337 78.9883 14.3417 78.9883 14.701C78.9883 15.141 78.9039 15.515 78.7353 15.823C78.5739 16.1237 78.3576 16.3693 78.0862 16.56C77.8149 16.7433 77.5033 16.879 77.1513 16.967C76.7993 17.0477 76.4363 17.088 76.0623 17.088C75.7763 17.088 75.4829 17.066 75.1823 17.022C74.8816 16.978 74.5883 16.9157 74.3023 16.835C74.0163 16.747 73.7376 16.6443 73.4663 16.527C73.2023 16.4097 72.9566 16.274 72.7293 16.12L73.5213 14.547C73.5506 14.5837 73.6459 14.6533 73.8073 14.756C73.9686 14.8587 74.1666 14.9613 74.4013 15.064C74.6433 15.1667 74.9109 15.2583 75.2043 15.339C75.4976 15.4197 75.7946 15.46 76.0953 15.46C76.7333 15.46 77.0523 15.2657 77.0523 14.877C77.0523 14.7303 77.0046 14.6093 76.9093 14.514C76.8139 14.4187 76.6819 14.3343 76.5133 14.261C76.3446 14.1803 76.1429 14.107 75.9083 14.041C75.6809 13.975 75.4316 13.9017 75.1603 13.821C74.8009 13.711 74.4893 13.5937 74.2253 13.469C73.9613 13.337 73.7413 13.1867 73.5653 13.018C73.3966 12.8493 73.2683 12.655 73.1803 12.435C73.0996 12.215 73.0593 11.9583 73.0593 11.665C73.0593 11.2543 73.1363 10.8913 73.2903 10.576C73.4443 10.2607 73.6533 9.99667 73.9173 9.784C74.1813 9.564 74.4856 9.399 74.8303 9.289C75.1823 9.179 75.5526 9.124 75.9413 9.124C76.2126 9.124 76.4803 9.14967 76.7443 9.201C77.0083 9.25233 77.2613 9.31833 77.5033 9.399C77.7453 9.47967 77.9689 9.57133 78.1743 9.674C78.3869 9.77667 78.5813 9.87933 78.7573 9.982L77.9653 11.478ZM88.2537 10.774H85.8777V17H84.0737V10.774H81.6867V9.19H88.2537V10.774ZM92.2246 9.19L93.9076 12.776L95.6126 9.19H97.5816L94.7986 14.338V17H93.0056V14.316L90.2666 9.19H92.2246ZM100.5 17V9.19H104.02C104.387 9.19 104.724 9.267 105.032 9.421C105.347 9.575 105.619 9.77667 105.846 10.026C106.073 10.2753 106.249 10.5577 106.374 10.873C106.506 11.1883 106.572 11.5073 106.572 11.83C106.572 12.072 106.543 12.3067 106.484 12.534C106.425 12.754 106.341 12.963 106.231 13.161C106.121 13.359 105.985 13.5387 105.824 13.7C105.67 13.854 105.494 13.986 105.296 14.096L107.012 17H104.977L103.481 14.481H102.304V17H100.5ZM102.304 12.908H103.954C104.167 12.908 104.35 12.809 104.504 12.611C104.658 12.4057 104.735 12.1453 104.735 11.83C104.735 11.5073 104.647 11.2507 104.471 11.06C104.295 10.8693 104.104 10.774 103.899 10.774H102.304V12.908ZM115.925 15.416V17H110.436V9.19H115.826V10.774H112.24V12.292H115.32V13.755H112.24V15.416H115.925ZM125.228 10.774H122.852V17H121.048V10.774H118.661V9.19H125.228V10.774Z" fill="#E0B138"/>
<circle cx="74" cy="239" r="63" fill="#E0B138"/>
<path d="M90.5 191L148 194.5L80 252L33.5 250L90.5 191Z" fill="#EACB7B"/>
<path d="M74.5 241L110.5 243L30 319L12.5 318L74.5 241Z" fill="#EACB7B"/>
<path d="M87 191L144.5 194.5L76.5 252L30 250L87 191Z" fill="#E0B138"/>
<path d="M71 241L107 243L26.5 319L9 318L71 241Z" fill="#E0B138"/>
<path d="M14 26H74V116V176L14 116V26Z" fill="#0060A3"/>
<path d="M74 26H134V116L74 176V116V26Z" fill="#F2F2F2"/>
</svg>
