<svg width="126" height="71" viewBox="0 0 126 71" version="1.1" xmlns="http://www.w3.org/2000/svg" xmlns:xlink="http://www.w3.org/1999/xlink"><g id="Canvas" fill="none"><g id="DollarHat"><g id="Rectangle 15.1"><rect width="90" height="11" transform="translate(18 45)" fill="#E0B138"/></g><g id="Rectangle 13.1"><rect width="126" height="15" rx="7.5" transform="translate(0 56)" fill="#333333"/></g><g id="Ellipse 7"><path d="M 90 45C 45 45 69.8528 45 45 45C 20.1472 45 45 45 0 45C 0 20.1472 20.1472 0 45 0C 69.8528 0 90 20.1472 90 45Z" transform="translate(18 0)" fill="#333333"/></g><g id="$"><path d="M 15.0469 26.4082C 15.0469 25.3301 14.666 24.4219 13.9043 23.6836C 13.1543 22.9453 11.8828 22.2773 10.0898 21.6797C 7.59375 20.918 5.77148 19.9277 4.62305 18.709C 3.48633 17.4785 2.91797 15.9199 2.91797 14.0332C 2.91797 12.1113 3.47461 10.5352 4.58789 9.30469C 5.71289 8.07422 7.25391 7.3418 9.21094 7.10742L 9.21094 3.25781L 11.8301 3.25781L 11.8301 7.125C 13.7988 7.39453 15.3281 8.2207 16.418 9.60352C 17.5195 10.9863 18.0703 12.8789 18.0703 15.2812L 14.8359 15.2812C 14.8359 13.6289 14.4434 12.3164 13.6582 11.3438C 12.873 10.3711 11.8125 9.88477 10.4766 9.88477C 9.08203 9.88477 8.01562 10.248 7.27734 10.9746C 6.53906 11.6895 6.16992 12.6914 6.16992 13.9805C 6.16992 15.1758 6.55664 16.1309 7.33008 16.8457C 8.11523 17.5488 9.39844 18.1934 11.1797 18.7793C 12.9727 19.3535 14.3672 19.9922 15.3633 20.6953C 16.3711 21.3867 17.1094 22.1953 17.5781 23.1211C 18.0586 24.0469 18.2988 25.1309 18.2988 26.373C 18.2988 28.3535 17.7012 29.9473 16.5059 31.1543C 15.3223 32.3613 13.6582 33.0762 11.5137 33.2988L 11.5137 36.6562L 8.91211 36.6562L 8.91211 33.2988C 6.73242 33.0996 5.02148 32.3262 3.7793 30.9785C 2.54883 29.6191 1.93359 27.7793 1.93359 25.459L 5.18555 25.459C 5.18555 27.0879 5.61328 28.3418 6.46875 29.2207C 7.32422 30.0996 8.53711 30.5391 10.1074 30.5391C 11.6426 30.5391 12.8496 30.1699 13.7285 29.4316C 14.6074 28.6934 15.0469 27.6855 15.0469 26.4082Z" transform="translate(53 8.3999)" fill="#E0B138"/></g></g></g></svg>
