<svg width="126" height="104" viewBox="0 0 126 104" version="1.1" xmlns="http://www.w3.org/2000/svg" xmlns:xlink="http://www.w3.org/1999/xlink">
<title>CrownForAKing</title>
<desc>Created using Figma</desc>
<g id="Canvas" transform="translate(-146 -703)">
<g id="CrownForAKing">
<g id="Rectangle 10">
<use xlink:href="#path0_fill" transform="translate(146 725)" fill="#E0B138"/>
</g>
<g id="Rectangle 10.1">
<use xlink:href="#path1_fill" transform="translate(155 732)" fill="#FFFFFF"/>
</g>
<g id="Rectangle 10.2">
<use xlink:href="#path2_fill" transform="translate(155 746)" fill="#8A0E0E"/>
</g>
<g id="Rectangle 11">
<use xlink:href="#path3_fill" transform="translate(146 783)" fill="#E0B138"/>
</g>
<g id="Rectangle 12">
<use xlink:href="#path4_fill" transform="translate(204 703)" fill="#E0B138"/>
</g>
<g id="Rectangle 13">
<use xlink:href="#path5_fill" transform="translate(196 711)" fill="#E0B138"/>
</g>
<g id="HS">
<g id="Ellipse 7">
<use xlink:href="#path6_fill" transform="translate(198.345 752)" fill="#E0B138"/>
</g>
<g id="Ellipse 8">
<use xlink:href="#path7_fill" transform="translate(200.935 754.59)" fill="#F2F2F2"/>
</g>
<g id="Ellipse 8.1">
<use xlink:href="#path8_fill" transform="matrix(-1 0 0 1 217.511 754.59)" fill="#0060A3"/>
</g>
<g id="MedalLightning">
<g id="Rectangle 9">
<use xlink:href="#path9_fill" transform="translate(202.23 754.59)" fill="#EACB7B"/>
</g>
<g id="Rectangle 10">
<use xlink:href="#path10_fill" transform="translate(198.604 763.223)" fill="#EACB7B"/>
</g>
</g>
<g id="MedalLightning2">
<g id="Rectangle 9">
<use xlink:href="#path9_fill" transform="translate(201.626 754.59)" fill="#E0B138"/>
</g>
<g id="Rectangle 10">
<use xlink:href="#path10_fill" transform="translate(198 763.223)" fill="#E0B138"/>
</g>
</g>
</g>
<g id="Leder">
<use xlink:href="#path11_fill" transform="translate(194 784)" fill="#EACB7B"/>
</g>
<g id="Rectangle 14">
<use xlink:href="#path12_fill" transform="translate(270 777)" fill="#E0B138"/>
</g>
<g id="Rectangle 14.1">
<use xlink:href="#path12_fill" transform="translate(146 777)" fill="#E0B138"/>
</g>
</g>
</g>
<defs>
<path id="path0_fill" d="M 0 28C 0 12.536 12.536 0 28 0L 98 0C 113.464 0 126 12.536 126 28L 126 54C 126 69.464 113.464 82 98 82L 28 82C 12.536 82 0 69.464 0 54L 0 28Z"/>
<path id="path1_fill" d="M 0 20C 0 8.9543 8.9543 0 20 0L 88 0C 99.0457 0 108 8.9543 108 20L 108 49C 108 60.0457 99.0457 69 88 69L 20 69C 8.95431 69 0 60.0457 0 49L 0 20Z"/>
<path id="path2_fill" d="M 0 20C 0 8.95431 8.9543 0 20 0L 88 0C 99.0457 0 108 8.95431 108 20L 108 38C 108 49.0457 99.0457 58 88 58L 20 58C 8.95431 58 0 49.0457 0 38L 0 20Z"/>
<path id="path3_fill" d="M 0 0L 126 0L 126 24L 0 24L 0 0Z"/>
<path id="path4_fill" d="M 0 0L 10 0L 10 104L 0 104L 0 0Z"/>
<path id="path5_fill" d="M 0 0L 26 0L 26 10L 0 10L 0 0Z"/>
<path id="path6_fill" d="M 21.7554 10.8777C 21.7554 16.8853 16.8853 21.7554 10.8777 21.7554C 4.87011 21.7554 0 16.8853 0 10.8777C 0 4.87011 4.87011 0 10.8777 0C 16.8853 0 21.7554 4.87011 21.7554 10.8777Z"/>
<path id="path7_fill" d="M 8.28777 8.28777C 8.28777 12.865 8.28777 8.28777 8.28777 16.5755C 3.71056 16.5755 0 12.865 0 8.28777C 0 3.71056 3.71056 0 8.28777 0C 8.28777 8.28777 8.28777 3.71056 8.28777 8.28777Z"/>
<path id="path8_fill" d="M 8.28777 8.28777C 8.28777 12.865 8.28777 8.28777 8.28777 16.5755C 3.71056 16.5755 0 12.865 0 8.28777C 0 3.71056 3.71056 0 8.28777 0C 8.28777 8.28777 8.28777 3.71056 8.28777 8.28777Z"/>
<path id="path9_fill" d="M 9.84173 0L 19.7698 0.604317L 8.02878 10.5324L 0 10.1871L 9.84173 0Z"/>
<path id="path10_fill" d="M 10.705 0L 16.9209 0.345324L 3.02158 13.4676L 0 13.295L 10.705 0Z"/>
<path id="path11_fill" d="M 3.618 7.61C 3.786 6.314 4.176 5.318 4.788 4.622C 5.412 3.914 6.228 3.56 7.236 3.56C 8.244 3.56 8.748 3.908 8.748 4.604C 8.748 5.072 8.634 5.504 8.406 5.9C 8.19 6.284 7.896 6.608 7.524 6.872C 6.792 7.364 5.934 7.718 4.95 7.934C 4.71 9.998 4.356 11.474 3.888 12.362C 4.992 12.734 5.736 12.974 6.12 13.082C 6.504 13.178 6.906 13.226 7.326 13.226C 7.758 13.226 8.052 13.052 8.208 12.704C 8.364 12.356 8.478 12.182 8.55 12.182C 8.694 12.182 8.766 12.272 8.766 12.452C 8.766 13.016 8.556 13.496 8.136 13.892C 7.716 14.288 7.26 14.486 6.768 14.486C 6.264 14.486 5.808 14.402 5.4 14.234C 4.992 14.066 4.734 13.958 4.626 13.91C 4.518 13.862 4.296 13.76 3.96 13.604C 3.636 13.448 3.408 13.34 3.276 13.28C 2.82 13.76 2.208 14 1.44 14C 1.128 14 0.852 13.886 0.612 13.658C 0.372 13.43 0.252 13.16 0.252 12.848C 0.252 12.164 0.642 11.822 1.422 11.822C 1.758 11.822 2.226 11.9 2.826 12.056C 3.054 11.336 3.294 10.028 3.546 8.132C 3.414 8.144 3.234 8.15 3.006 8.15C 2.79 8.15 2.682 8.114 2.682 8.042C 2.682 7.814 2.994 7.67 3.618 7.61ZM 5.004 7.412C 5.772 7.244 6.402 6.962 6.894 6.566C 7.398 6.158 7.65 5.63 7.65 4.982C 7.65 4.334 7.428 4.01 6.984 4.01C 6.012 4.01 5.352 5.144 5.004 7.412ZM 2.412 12.902C 1.716 12.602 1.284 12.452 1.116 12.452C 0.96 12.452 0.882 12.536 0.882 12.704C 0.882 12.872 0.954 13.016 1.098 13.136C 1.254 13.256 1.452 13.316 1.692 13.316C 1.932 13.316 2.172 13.178 2.412 12.902ZM 10.8796 14.09C 10.2076 14.09 9.67359 13.838 9.27759 13.334C 8.88159 12.818 8.68359 12.236 8.68359 11.588C 8.68359 10.28 8.95959 9.29 9.51159 8.618C 10.0636 7.946 10.7776 7.61 11.6536 7.61C 12.0616 7.61 12.3976 7.724 12.6616 7.952C 12.9256 8.168 13.0576 8.468 13.0576 8.852C 13.0576 9.572 12.7516 10.178 12.1396 10.67C 11.5396 11.15 10.8016 11.402 9.92559 11.426C 9.97359 11.894 10.1296 12.302 10.3936 12.65C 10.6696 12.986 10.9876 13.154 11.3476 13.154C 11.7076 13.154 12.0316 13.07 12.3196 12.902C 12.6076 12.734 12.8716 12.494 13.1116 12.182C 13.6156 11.522 14.0476 10.772 14.4076 9.932C 14.5036 9.716 14.5756 9.56 14.6236 9.464C 14.6836 9.368 14.7436 9.32 14.8036 9.32C 14.8756 9.32 14.9116 9.368 14.9116 9.464C 14.9116 10.064 14.5456 10.964 13.8136 12.164C 13.0216 13.448 12.0436 14.09 10.8796 14.09ZM 9.92559 10.994C 10.6336 10.874 11.1496 10.646 11.4736 10.31C 11.8096 9.974 11.9776 9.536 11.9776 8.996C 11.9776 8.456 11.8036 8.186 11.4556 8.186C 11.0356 8.186 10.6816 8.48 10.3936 9.068C 10.1056 9.644 9.94959 10.286 9.92559 10.994ZM 19.087 14.09C 18.679 14.09 18.361 14 18.133 13.82C 18.037 13.724 17.989 13.472 17.989 13.064C 17.989 12.656 18.007 12.122 18.043 11.462C 17.719 12.326 17.389 12.98 17.053 13.424C 16.717 13.868 16.291 14.09 15.775 14.09C 15.271 14.09 14.839 13.868 14.479 13.424C 14.131 12.98 13.957 12.272 13.957 11.3C 13.957 10.328 14.227 9.47 14.767 8.726C 15.319 7.982 16.039 7.61 16.927 7.61C 17.359 7.61 17.809 7.778 18.277 8.114C 18.469 5.774 18.643 4.454 18.799 4.154C 18.871 4.022 19.039 3.83 19.303 3.578C 19.579 3.326 19.807 3.2 19.987 3.2C 20.167 3.2 20.257 3.482 20.257 4.046C 20.257 4.706 20.197 5.276 20.077 5.756C 19.753 6.992 19.549 7.778 19.465 8.114C 19.297 9.41 19.213 10.934 19.213 12.686C 19.213 13.01 19.249 13.172 19.321 13.172C 19.537 13.16 19.825 12.908 20.185 12.416C 20.545 11.924 20.899 11.288 21.247 10.508C 21.607 9.716 21.823 9.32 21.895 9.32C 21.979 9.32 22.021 9.368 22.021 9.464C 22.021 9.8 21.847 10.334 21.499 11.066C 20.551 13.082 19.747 14.09 19.087 14.09ZM 16.819 8.258C 16.495 8.258 16.171 8.516 15.847 9.032C 15.523 9.548 15.361 10.148 15.361 10.832C 15.361 11.504 15.445 12.056 15.613 12.488C 15.793 12.92 16.015 13.136 16.279 13.136C 16.819 13.136 17.437 12.056 18.133 9.896C 18.193 9.236 18.223 8.846 18.223 8.726C 17.875 8.414 17.407 8.258 16.819 8.258ZM 23.237 14.09C 22.565 14.09 22.031 13.838 21.635 13.334C 21.239 12.818 21.041 12.236 21.041 11.588C 21.041 10.28 21.317 9.29 21.869 8.618C 22.421 7.946 23.135 7.61 24.011 7.61C 24.419 7.61 24.755 7.724 25.019 7.952C 25.283 8.168 25.415 8.468 25.415 8.852C 25.415 9.572 25.109 10.178 24.497 10.67C 23.897 11.15 23.159 11.402 22.283 11.426C 22.331 11.894 22.487 12.302 22.751 12.65C 23.027 12.986 23.345 13.154 23.705 13.154C 24.065 13.154 24.389 13.07 24.677 12.902C 24.965 12.734 25.229 12.494 25.469 12.182C 25.973 11.522 26.405 10.772 26.765 9.932C 26.861 9.716 26.933 9.56 26.981 9.464C 27.041 9.368 27.101 9.32 27.161 9.32C 27.233 9.32 27.269 9.368 27.269 9.464C 27.269 10.064 26.903 10.964 26.171 12.164C 25.379 13.448 24.401 14.09 23.237 14.09ZM 22.283 10.994C 22.991 10.874 23.507 10.646 23.831 10.31C 24.167 9.974 24.335 9.536 24.335 8.996C 24.335 8.456 24.161 8.186 23.813 8.186C 23.393 8.186 23.039 8.48 22.751 9.068C 22.463 9.644 22.307 10.286 22.283 10.994ZM 27.8805 9.302L 28.8705 9.194C 28.9665 9.194 29.0505 9.248 29.1225 9.356C 29.1945 9.464 29.2305 9.578 29.2305 9.698C 29.2305 9.818 29.1885 10.226 29.1045 10.922C 29.0325 11.618 28.9965 12.17 28.9965 12.578C 28.9965 12.974 29.0325 13.172 29.1045 13.172C 29.3085 13.16 29.5905 12.908 29.9505 12.416C 30.3105 11.912 30.6645 11.27 31.0125 10.49C 31.3725 9.71 31.5885 9.32 31.6605 9.32C 31.7445 9.32 31.7865 9.368 31.7865 9.464C 31.7865 9.8 31.6125 10.334 31.2645 11.066C 30.3165 13.082 29.5185 14.09 28.8705 14.09C 28.4025 14.09 28.0485 13.994 27.8085 13.802C 27.7245 13.718 27.6825 13.196 27.6825 12.236C 27.6825 11.276 27.7845 10.454 27.9885 9.77C 27.2925 9.77 26.8065 9.548 26.5305 9.104C 26.3865 8.876 26.3145 8.618 26.3145 8.33C 26.3145 8.042 26.3745 7.79 26.4945 7.574C 26.6145 7.358 26.7825 7.25 26.9985 7.25C 27.2265 7.25 27.4305 7.37 27.6105 7.61C 27.8025 7.838 27.8985 8.096 27.8985 8.384C 27.8985 8.672 27.8145 8.96 27.6465 9.248C 27.6945 9.284 27.7725 9.302 27.8805 9.302Z"/>
<path id="path12_fill" d="M 0 0L 2 0L 2 6L 0 6L 0 0Z"/>
</defs>
</svg>
