<svg width="126" height="62" viewBox="0 0 126 62" version="1.1" xmlns="http://www.w3.org/2000/svg" xmlns:xlink="http://www.w3.org/1999/xlink">
<title>CrownForANestleder</title>
<desc>Created using Figma</desc>
<g id="Canvas" transform="translate(-3 -745)">
<g id="CrownForANestleder">
<g id="Rectangle 10">
<use xlink:href="#path0_fill" transform="translate(3 783)" fill="#E0B138"/>
</g>
<g id="Rectangle 11">
<use xlink:href="#path1_fill" transform="translate(3 753)" fill="#E0B138"/>
</g>
<g id="Rectangle 11.1">
<use xlink:href="#path1_fill" transform="matrix(-1 0 0 1 129 753)" fill="#E0B138"/>
</g>
<g id="Rectangle 12">
<use xlink:href="#path2_fill" transform="translate(24 759)" fill="#E0B138"/>
</g>
<g id="Rectangle 12.3">
<use xlink:href="#path2_fill" transform="translate(84 759)" fill="#E0B138"/>
</g>
<g id="Rectangle 13">
<use xlink:href="#path3_fill" transform="matrix(1 0 0 -1 49 783)" fill="#E0B138"/>
</g>
<g id="Nestleder">
<use xlink:href="#path4_fill" transform="translate(43 785)" fill="#EACB7B"/>
</g>
</g>
</g>
<defs>
<path id="path0_fill" d="M 0 0L 126 0L 126 24L 0 24L 0 0Z"/>
<path id="path1_fill" d="M 0 0L 20 30L 0 30L 0 0Z"/>
<path id="path2_fill" d="M 0 24L 12 0L 24 24L 0 24Z"/>
<path id="path3_fill" d="M 0 0L 34 0L 17 38L 0 0Z"/>
<path id="path4_fill" d="M 4.032 7.358C 3.84 8.582 3.57 9.77 3.222 10.922C 2.886 12.074 2.514 12.92 2.106 13.46C 1.698 14 1.206 14.27 0.63 14.27C 0.21 14.27 0 14.108 0 13.784C 0 13.52 0.09 13.334 0.27 13.226C 0.45 13.118 0.66 13.04 0.9 12.992C 1.152 12.932 1.314 12.866 1.386 12.794C 1.83 12.326 2.238 11.492 2.61 10.292C 2.994 9.08 3.27 7.85 3.438 6.602C 2.922 6.062 2.664 5.624 2.664 5.288C 2.664 4.952 2.76 4.568 2.952 4.136C 3.144 3.692 3.372 3.47 3.636 3.47C 3.792 3.47 3.93 3.662 4.05 4.046C 4.17 4.43 4.23 4.91 4.23 5.486C 4.854 6.278 5.34 6.962 5.688 7.538C 6.06 6.314 6.57 5.288 7.218 4.46C 7.866 3.62 8.61 3.2 9.45 3.2C 9.75 3.2 9.99 3.308 10.17 3.524C 10.35 3.74 10.44 3.98 10.44 4.244C 10.44 4.508 10.386 4.748 10.278 4.964C 10.182 5.168 10.05 5.27 9.882 5.27C 9.714 5.27 9.63 5.186 9.63 5.018C 9.63 4.85 9.576 4.724 9.468 4.64C 9.372 4.544 9.246 4.496 9.09 4.496C 8.598 4.496 8.136 4.754 7.704 5.27C 7.092 6.002 6.582 7.046 6.174 8.402C 6.966 10.106 7.362 11.486 7.362 12.542C 7.362 12.974 7.266 13.358 7.074 13.694C 6.882 14.018 6.6 14.18 6.228 14.18C 5.436 14.18 5.04 13.508 5.04 12.164C 5.04 11.216 5.112 10.316 5.256 9.464C 4.896 8.696 4.488 7.994 4.032 7.358ZM 5.688 10.652C 5.628 11.084 5.598 11.528 5.598 11.984C 5.598 12.44 5.628 12.794 5.688 13.046C 5.748 13.298 5.814 13.424 5.886 13.424C 6.03 13.424 6.102 13.178 6.102 12.686C 6.102 12.194 5.964 11.516 5.688 10.652ZM 11.1433 14.09C 10.4713 14.09 9.93727 13.838 9.54127 13.334C 9.14527 12.818 8.94727 12.236 8.94727 11.588C 8.94727 10.28 9.22327 9.29 9.77527 8.618C 10.3273 7.946 11.0413 7.61 11.9173 7.61C 12.3253 7.61 12.6613 7.724 12.9253 7.952C 13.1893 8.168 13.3213 8.468 13.3213 8.852C 13.3213 9.572 13.0153 10.178 12.4033 10.67C 11.8033 11.15 11.0653 11.402 10.1893 11.426C 10.2373 11.894 10.3933 12.302 10.6573 12.65C 10.9333 12.986 11.2513 13.154 11.6113 13.154C 11.9713 13.154 12.2953 13.07 12.5833 12.902C 12.8713 12.734 13.1353 12.494 13.3753 12.182C 13.8793 11.522 14.3113 10.772 14.6713 9.932C 14.7673 9.716 14.8393 9.56 14.8873 9.464C 14.9473 9.368 15.0073 9.32 15.0673 9.32C 15.1393 9.32 15.1753 9.368 15.1753 9.464C 15.1753 10.064 14.8093 10.964 14.0773 12.164C 13.2853 13.448 12.3073 14.09 11.1433 14.09ZM 10.1893 10.994C 10.8973 10.874 11.4133 10.646 11.7373 10.31C 12.0733 9.974 12.2413 9.536 12.2413 8.996C 12.2413 8.456 12.0673 8.186 11.7193 8.186C 11.2993 8.186 10.9453 8.48 10.6573 9.068C 10.3693 9.644 10.2133 10.286 10.1893 10.994ZM 16.8847 8.492L 16.9207 8.222C 16.9207 8.006 16.7947 7.898 16.5427 7.898C 16.3027 7.898 16.0687 8.06 15.8407 8.384C 15.6127 8.696 15.4987 8.954 15.4987 9.158C 15.4987 9.362 15.5107 9.524 15.5347 9.644C 15.5587 9.764 15.5827 9.866 15.6067 9.95C 15.6427 10.022 15.6967 10.112 15.7687 10.22C 15.8407 10.328 15.8947 10.406 15.9307 10.454L 16.1287 10.706C 16.2127 10.826 16.2727 10.904 16.3087 10.94C 16.9327 10.424 17.6767 9.848 18.5407 9.212C 18.5887 9.176 18.6427 9.158 18.7027 9.158C 18.8227 9.158 18.8827 9.224 18.8827 9.356C 18.8827 9.488 18.8287 9.59 18.7207 9.662C 17.9527 10.154 17.2267 10.688 16.5427 11.264C 16.8067 11.648 16.9387 12.068 16.9387 12.524C 16.9387 12.98 16.7647 13.37 16.4167 13.694C 16.0687 14.018 15.6247 14.18 15.0847 14.18C 14.5447 14.18 14.2747 13.922 14.2747 13.406C 14.2747 13.034 14.6707 12.464 15.4627 11.696C 15.4027 11.624 15.2947 11.51 15.1387 11.354C 14.9827 11.186 14.8627 11.054 14.7787 10.958C 14.7067 10.862 14.6167 10.736 14.5087 10.58C 14.3167 10.28 14.2207 9.956 14.2207 9.608C 14.2207 8.9 14.4487 8.33 14.9047 7.898C 15.3607 7.454 15.8467 7.232 16.3627 7.232C 16.6867 7.232 16.9387 7.322 17.1187 7.502C 17.2987 7.67 17.3887 7.844 17.3887 8.024C 17.3887 8.432 17.2927 8.636 17.1007 8.636C 16.9567 8.636 16.8847 8.588 16.8847 8.492ZM 15.7327 12.038C 15.2527 12.518 15.0127 12.908 15.0127 13.208C 15.0127 13.496 15.1627 13.64 15.4627 13.64C 15.6427 13.64 15.7927 13.568 15.9127 13.424C 16.1767 13.064 16.1167 12.602 15.7327 12.038ZM 21.9968 11.066C 21.0488 13.082 20.2448 14.09 19.5848 14.09C 18.9368 14.09 18.5528 14.012 18.4328 13.856C 18.3248 13.7 18.2708 13.184 18.2708 12.308C 18.2708 11.432 18.3548 10.166 18.5228 8.51C 17.9228 8.39 17.6048 8.144 17.5688 7.772C 17.5688 7.58 17.6948 7.484 17.9468 7.484C 18.1988 7.484 18.4208 7.532 18.6128 7.628C 18.7208 6.764 18.8468 5.888 18.9908 5C 19.0268 4.772 19.1408 4.556 19.3328 4.352C 19.5248 4.148 19.7108 4.046 19.8908 4.046C 20.0468 4.046 20.1248 4.292 20.1248 4.784C 20.1248 5.012 20.0408 6.062 19.8728 7.934C 20.1968 7.874 20.5508 7.754 20.9348 7.574C 21.3308 7.394 21.5648 7.304 21.6368 7.304C 21.8528 7.304 21.9608 7.37 21.9608 7.502C 21.9728 7.622 21.7508 7.79 21.2948 8.006C 20.8388 8.21 20.3468 8.366 19.8188 8.474C 19.6748 10.226 19.6028 11.552 19.6028 12.452C 19.6028 12.932 19.6748 13.172 19.8188 13.172C 20.0348 13.16 20.3228 12.908 20.6828 12.416C 21.0428 11.924 21.3968 11.288 21.7448 10.508C 22.1048 9.716 22.3208 9.32 22.3928 9.32C 22.4768 9.32 22.5188 9.368 22.5188 9.464C 22.5188 9.8 22.3448 10.334 21.9968 11.066ZM 22.8999 14.09C 22.6359 14.09 22.3899 14.06 22.1619 14C 21.9459 13.928 21.8139 13.862 21.7659 13.802C 21.6459 13.658 21.5859 12.914 21.5859 11.57C 21.5859 10.214 21.7359 8.378 22.0359 6.062C 22.2879 4.154 22.8759 3.2 23.7999 3.2C 24.0159 3.2 24.1719 3.32 24.2679 3.56C 24.3639 3.788 24.4119 4.01 24.4119 4.226C 24.4119 5.786 23.9379 7.532 22.9899 9.464C 22.9539 10.46 22.9359 11.33 22.9359 12.074C 22.9359 12.806 23.0019 13.172 23.1339 13.172C 23.3379 13.16 23.6199 12.908 23.9799 12.416C 24.3399 11.912 24.6939 11.27 25.0419 10.49C 25.4019 9.71 25.6179 9.32 25.6899 9.32C 25.7739 9.32 25.8159 9.368 25.8159 9.464C 25.8159 9.8 25.6419 10.334 25.2939 11.066C 24.3459 13.082 23.5479 14.09 22.8999 14.09ZM 23.9619 4.388C 23.9619 4.004 23.9139 3.812 23.8179 3.812C 23.4579 3.812 23.1939 5.306 23.0259 8.294C 23.6499 6.65 23.9619 5.348 23.9619 4.388ZM 26.9284 14.09C 26.2564 14.09 25.7224 13.838 25.3264 13.334C 24.9304 12.818 24.7324 12.236 24.7324 11.588C 24.7324 10.28 25.0084 9.29 25.5604 8.618C 26.1124 7.946 26.8264 7.61 27.7024 7.61C 28.1104 7.61 28.4464 7.724 28.7104 7.952C 28.9744 8.168 29.1064 8.468 29.1064 8.852C 29.1064 9.572 28.8004 10.178 28.1884 10.67C 27.5884 11.15 26.8504 11.402 25.9744 11.426C 26.0224 11.894 26.1784 12.302 26.4424 12.65C 26.7184 12.986 27.0364 13.154 27.3964 13.154C 27.7564 13.154 28.0804 13.07 28.3684 12.902C 28.6564 12.734 28.9204 12.494 29.1604 12.182C 29.6644 11.522 30.0964 10.772 30.4564 9.932C 30.5524 9.716 30.6244 9.56 30.6724 9.464C 30.7324 9.368 30.7924 9.32 30.8524 9.32C 30.9244 9.32 30.9604 9.368 30.9604 9.464C 30.9604 10.064 30.5944 10.964 29.8624 12.164C 29.0704 13.448 28.0924 14.09 26.9284 14.09ZM 25.9744 10.994C 26.6824 10.874 27.1984 10.646 27.5224 10.31C 27.8584 9.974 28.0264 9.536 28.0264 8.996C 28.0264 8.456 27.8524 8.186 27.5044 8.186C 27.0844 8.186 26.7304 8.48 26.4424 9.068C 26.1544 9.644 25.9984 10.286 25.9744 10.994ZM 35.1359 14.09C 34.7279 14.09 34.4099 14 34.1819 13.82C 34.0859 13.724 34.0379 13.472 34.0379 13.064C 34.0379 12.656 34.0559 12.122 34.0919 11.462C 33.7679 12.326 33.4379 12.98 33.1019 13.424C 32.7659 13.868 32.3399 14.09 31.8239 14.09C 31.3199 14.09 30.8879 13.868 30.5279 13.424C 30.1799 12.98 30.0059 12.272 30.0059 11.3C 30.0059 10.328 30.2759 9.47 30.8159 8.726C 31.3679 7.982 32.0879 7.61 32.9759 7.61C 33.4079 7.61 33.8579 7.778 34.3259 8.114C 34.5179 5.774 34.6919 4.454 34.8479 4.154C 34.9199 4.022 35.0879 3.83 35.3519 3.578C 35.6279 3.326 35.8559 3.2 36.0359 3.2C 36.2159 3.2 36.3059 3.482 36.3059 4.046C 36.3059 4.706 36.2459 5.276 36.1259 5.756C 35.8019 6.992 35.5979 7.778 35.5139 8.114C 35.3459 9.41 35.2619 10.934 35.2619 12.686C 35.2619 13.01 35.2979 13.172 35.3699 13.172C 35.5859 13.16 35.8739 12.908 36.2339 12.416C 36.5939 11.924 36.9479 11.288 37.2959 10.508C 37.6559 9.716 37.8719 9.32 37.9439 9.32C 38.0279 9.32 38.0699 9.368 38.0699 9.464C 38.0699 9.8 37.8959 10.334 37.5479 11.066C 36.5999 13.082 35.7959 14.09 35.1359 14.09ZM 32.8679 8.258C 32.5439 8.258 32.2199 8.516 31.8959 9.032C 31.5719 9.548 31.4099 10.148 31.4099 10.832C 31.4099 11.504 31.4939 12.056 31.6619 12.488C 31.8419 12.92 32.0639 13.136 32.3279 13.136C 32.8679 13.136 33.4859 12.056 34.1819 9.896C 34.2419 9.236 34.2719 8.846 34.2719 8.726C 33.9239 8.414 33.4559 8.258 32.8679 8.258ZM 39.2858 14.09C 38.6138 14.09 38.0798 13.838 37.6838 13.334C 37.2878 12.818 37.0898 12.236 37.0898 11.588C 37.0898 10.28 37.3658 9.29 37.9178 8.618C 38.4698 7.946 39.1838 7.61 40.0598 7.61C 40.4678 7.61 40.8038 7.724 41.0678 7.952C 41.3318 8.168 41.4638 8.468 41.4638 8.852C 41.4638 9.572 41.1578 10.178 40.5458 10.67C 39.9458 11.15 39.2078 11.402 38.3318 11.426C 38.3798 11.894 38.5358 12.302 38.7998 12.65C 39.0758 12.986 39.3938 13.154 39.7538 13.154C 40.1138 13.154 40.4378 13.07 40.7258 12.902C 41.0138 12.734 41.2778 12.494 41.5178 12.182C 42.0218 11.522 42.4538 10.772 42.8138 9.932C 42.9098 9.716 42.9818 9.56 43.0298 9.464C 43.0898 9.368 43.1498 9.32 43.2098 9.32C 43.2818 9.32 43.3178 9.368 43.3178 9.464C 43.3178 10.064 42.9518 10.964 42.2198 12.164C 41.4278 13.448 40.4498 14.09 39.2858 14.09ZM 38.3318 10.994C 39.0398 10.874 39.5558 10.646 39.8798 10.31C 40.2158 9.974 40.3838 9.536 40.3838 8.996C 40.3838 8.456 40.2098 8.186 39.8618 8.186C 39.4418 8.186 39.0878 8.48 38.7998 9.068C 38.5118 9.644 38.3558 10.286 38.3318 10.994ZM 43.9293 9.302L 44.9193 9.194C 45.0153 9.194 45.0993 9.248 45.1713 9.356C 45.2433 9.464 45.2793 9.578 45.2793 9.698C 45.2793 9.818 45.2373 10.226 45.1533 10.922C 45.0813 11.618 45.0453 12.17 45.0453 12.578C 45.0453 12.974 45.0813 13.172 45.1533 13.172C 45.3573 13.16 45.6393 12.908 45.9993 12.416C 46.3593 11.912 46.7133 11.27 47.0613 10.49C 47.4213 9.71 47.6373 9.32 47.7093 9.32C 47.7933 9.32 47.8353 9.368 47.8353 9.464C 47.8353 9.8 47.6613 10.334 47.3133 11.066C 46.3653 13.082 45.5673 14.09 44.9193 14.09C 44.4513 14.09 44.0973 13.994 43.8573 13.802C 43.7733 13.718 43.7313 13.196 43.7313 12.236C 43.7313 11.276 43.8333 10.454 44.0373 9.77C 43.3413 9.77 42.8553 9.548 42.5793 9.104C 42.4353 8.876 42.3633 8.618 42.3633 8.33C 42.3633 8.042 42.4233 7.79 42.5433 7.574C 42.6633 7.358 42.8313 7.25 43.0473 7.25C 43.2753 7.25 43.4793 7.37 43.6593 7.61C 43.8513 7.838 43.9473 8.096 43.9473 8.384C 43.9473 8.672 43.8633 8.96 43.6953 9.248C 43.7433 9.284 43.8213 9.302 43.9293 9.302Z"/>
</defs>
</svg>
