<?xml version="1.0" encoding="utf-8"?>
<!-- Svg Vector Icons : http://www.onlinewebfonts.com/icon -->
<!DOCTYPE svg PUBLIC "-//W3C//DTD SVG 1.1//EN" "http://www.w3.org/Graphics/SVG/1.1/DTD/svg11.dtd">
<svg version="1.1" xmlns="http://www.w3.org/2000/svg" xmlns:xlink="http://www.w3.org/1999/xlink" x="0px" y="0px" viewBox="0 0 1000 1000" enable-background="new 0 0 1000 1000" xml:space="preserve">
<metadata> Svg Vector Icons : http://www.onlinewebfonts.com/icon </metadata>
<g><path d="M963.8,398.3L833.7,291.5c0.3-2.6,0.5-5.3,0.5-8v-149c0-37.7-30.6-68.3-68.3-68.3h-51.7c-37.7,0-68.3,30.6-68.3,68.3v2.7L542.4,52.4c-26.3-21.6-64-21.8-90.5-0.5l-415,333.3c-30.9,24.8-35.9,70.1-11,101c24.8,30.9,70,35.9,101,11l369.5-296.8l376.3,308.9c30.7,25.2,75.9,20.7,101.1-9.9C998.9,468.7,994.4,423.5,963.8,398.3L963.8,398.3z M147.7,519.7v375.8c0,37.7,30.6,68.3,68.3,68.3h255c-1-4.3-1.5-8.8-1.5-13.4V673.9c0-37.8,35.4-68.3,79-68.3h66.8c43.6,0,79,30.6,79,68.3v276.6c0,4.6-0.5,9-1.5,13.4h79.3c37.7,0,68.3-30.6,68.3-68.3V527.8L494.1,252.8L147.7,519.7L147.7,519.7z"/></g>
</svg>